<?xml version="1.0" standalone="no"?>
<!DOCTYPE svg PUBLIC "-//W3C//DTD SVG 20010904//EN"
 "http://www.w3.org/TR/2001/REC-SVG-20010904/DTD/svg10.dtd">
<svg version="1.0" xmlns="http://www.w3.org/2000/svg"
 width="710.000000pt" height="712.000000pt" viewBox="0 0 710.000000 712.000000"
 preserveAspectRatio="xMidYMid meet">

<g transform="translate(0.000000,712.000000) scale(0.100000,-0.100000)"
fill="#000000" stroke="none">
<path d="M1225 7060 c-131 -8 -200 -22 -320 -62 -113 -38 -169 -66 -270 -136
-249 -173 -433 -469 -477 -768 -19 -131 -19 -4997 0 -5098 17 -89 67 -247 99
-311 76 -152 219 -319 356 -416 121 -85 232 -136 407 -187 l95 -27 2475 0
2475 0 97 27 c226 62 427 181 560 332 151 171 218 297 281 531 l22 80 3 2505
c2 1804 0 2527 -8 2585 -14 99 -70 269 -116 355 -82 151 -238 318 -389 416
-94 61 -153 89 -270 127 -181 60 -57 57 -2590 55 -1276 0 -2369 -4 -2430 -8z
m2369 -436 c9 -8 16 -29 16 -45 0 -23 -5 -30 -27 -35 -34 -9 -57 6 -61 39 -2
17 4 30 20 41 28 20 33 20 52 0z m346 -24 c23 -23 24 -33 10 -61 -12 -22 -59
-26 -78 -7 -19 19 -14 55 10 72 29 20 34 20 58 -4z m-678 -7 c22 -20 23 -41 1
-65 -20 -22 -41 -23 -65 -1 -22 20 -23 41 -1 65 20 22 41 23 65 1z m1002 -49
c21 -20 20 -43 -1 -66 -31 -34 -83 -12 -83 36 0 44 52 63 84 30z m-1316 -20
c12 -8 22 -22 22 -31 0 -23 -29 -53 -51 -53 -23 0 -49 26 -49 50 0 21 25 50
43 50 7 0 23 -7 35 -16z m3232 -153 c0 -10 -6 -54 -14 -97 -8 -44 -29 -167
-46 -274 -155 -976 -169 -1058 -192 -1107 -75 -159 -287 -213 -436 -109 -21
14 -104 96 -186 183 -83 87 -287 299 -455 471 -168 173 -315 327 -328 344 -28
39 -47 128 -39 187 10 76 60 165 115 205 72 53 117 65 326 87 105 11 406 42
670 69 264 28 489 52 500 54 57 10 85 6 85 -13z m-3789 -101 c23 -13 26 -62 5
-80 -23 -18 -59 -8 -75 22 -14 24 -14 28 3 47 21 23 38 26 67 11z m1542 -16
c154 -24 277 -56 277 -73 0 -4 -16 -22 -35 -41 -36 -35 -75 -121 -75 -165 0
-31 -9 -31 -136 -3 -86 19 -130 22 -339 22 -224 1 -248 -1 -366 -27 -175 -37
-290 -77 -454 -157 -430 -209 -787 -597 -948 -1030 -100 -269 -139 -542 -117
-825 29 -390 146 -717 359 -1010 49 -67 50 -70 33 -90 -38 -42 -63 -94 -107
-223 -8 -21 -141 133 -227 263 -214 322 -333 702 -345 1105 -20 644 191 1190
625 1628 365 367 839 592 1353 642 125 12 375 4 502 -16z m-1954 -63 c67 -21
201 -104 201 -125 0 -6 -11 -24 -23 -40 l-24 -29 -34 25 c-186 140 -444 129
-616 -26 -28 -25 -55 -46 -59 -45 -5 0 -20 14 -33 31 l-25 31 61 58 c142 132
360 180 552 120z m-57 -280 c24 -10 50 -26 57 -35 12 -15 10 -21 -18 -50 -32
-33 -33 -33 -64 -18 -62 31 -160 17 -239 -35 -27 -17 -28 -17 -58 12 -16 16
-30 32 -30 36 0 14 64 68 100 86 77 37 172 38 252 4z m1936 -156 c332 -54 604
-213 918 -537 270 -278 378 -484 446 -853 17 -94 17 -465 0 -565 -31 -174 -85
-336 -169 -504 -53 -107 -117 -206 -132 -206 -5 0 -20 27 -35 60 l-27 60 21
57 c21 57 28 142 15 184 -5 13 -19 41 -31 61 -16 25 -24 53 -24 83 0 85 -68
176 -164 221 -39 18 -68 24 -123 24 l-73 0 0 244 0 245 55 6 c30 4 76 4 101 0
27 -4 45 -3 43 3 -2 5 -96 91 -209 192 -113 101 -275 247 -359 324 -416 379
-508 459 -521 454 -5 -2 -55 -46 -112 -98 -154 -142 -141 -138 -137 -50 l4 75
-212 3 -213 2 0 -51 c0 -42 3 -52 20 -56 19 -5 20 -14 20 -197 l0 -192 -157
-139 c-211 -188 -283 -256 -283 -266 0 -5 44 -9 98 -9 l97 0 0 -245 0 -246
-90 -2 c-107 -3 -148 -21 -217 -95 -48 -51 -68 -99 -68 -165 0 -23 -10 -53
-26 -79 -41 -64 -45 -156 -10 -230 14 -30 26 -60 26 -65 0 -17 -40 -103 -48
-103 -13 0 -87 119 -135 215 -133 270 -184 511 -174 829 7 207 32 353 92 526
196 561 700 983 1295 1085 107 18 384 18 498 0z m-2391 -72 c70 -52 172 -137
172 -144 1 -4 -12 -21 -28 -38 l-29 -31 -102 80 c-55 45 -103 87 -106 95 -3 8
5 28 18 44 12 17 23 30 23 30 0 1 23 -16 52 -36z m-73 -329 c34 -33 8 -104
-38 -104 -35 0 -66 28 -66 60 0 36 24 60 60 60 16 0 36 -7 44 -16z m2292 -475
c102 -68 97 -227 -9 -278 -86 -42 -183 -17 -225 57 -85 152 89 317 234 221z
m1923 -363 l96 -1 17 -75 c25 -102 37 -326 28 -490 -32 -542 -238 -1007 -627
-1410 -356 -370 -770 -578 -1284 -646 -185 -24 -516 -15 -699 20 -220 41 -403
101 -524 170 l-58 33 68 39 69 39 200 -3 c110 -2 247 -9 305 -17 559 -76 1062
39 1480 338 116 83 321 289 416 419 188 254 298 517 355 845 30 173 31 453 1
623 -11 63 -18 119 -15 123 2 4 21 5 41 1 19 -4 79 -7 131 -8z m930 -48 c14
-24 14 -28 -3 -47 -35 -39 -86 -21 -86 29 0 55 62 68 89 18z m-5791 -24 c30
-21 29 -59 -3 -80 -23 -15 -27 -15 -50 0 -29 19 -32 51 -8 78 20 22 32 23 61
2z m2482 -134 l0 -140 -135 0 -135 0 0 140 0 140 135 0 135 0 0 -140z m510 13
c0 -71 -4 -134 -9 -141 -6 -11 -35 -12 -140 -6 l-131 7 0 133 0 134 140 0 140
0 0 -127z m488 -10 l-3 -138 -132 -3 -133 -3 0 141 0 140 135 0 136 0 -3 -137z
m1937 101 c21 -21 16 -53 -10 -70 -18 -12 -24 -11 -43 2 -26 18 -28 46 -6 68
20 20 38 20 59 0z m-5054 -4 c39 -21 16 -90 -30 -90 -36 0 -55 71 -23 89 22
13 29 13 53 1z m5062 -341 c20 -28 10 -58 -21 -66 -48 -12 -81 37 -47 71 22
22 51 20 68 -5z m-5055 -1 c27 -27 1 -78 -38 -78 -29 0 -54 43 -40 69 12 24
58 29 78 9z m5381 -34 c39 -50 16 -104 -45 -104 -58 0 -83 63 -42 107 28 30
62 29 87 -3z m-5745 -23 c25 -28 17 -72 -16 -91 -25 -13 -31 -13 -55 0 -31 17
-41 56 -23 90 14 27 70 27 94 1z m2901 -46 c213 -80 195 -98 -95 -93 -212 4
-221 11 -80 74 52 23 98 43 101 43 4 1 37 -10 74 -24z m-425 -135 l0 -140
-135 0 -135 0 0 140 0 140 135 0 135 0 0 -140z m998 3 l-3 -138 -110 -3 c-168
-4 -155 -16 -155 143 l0 135 135 0 136 0 -3 -137z m-490 -49 c21 -6 22 -10 22
-125 l0 -119 45 0 c45 0 45 0 45 36 0 35 1 35 38 32 34 -3 37 -6 40 -35 3 -32
4 -33 51 -33 73 0 134 -26 180 -75 59 -64 71 -116 71 -312 l0 -163 -635 0
-635 0 0 178 c0 210 10 251 71 307 49 44 76 55 159 63 64 7 65 7 68 40 3 29 6
32 37 32 34 0 45 -13 45 -51 0 -16 7 -19 40 -19 l40 0 0 118 c0 65 3 122 7
125 8 9 280 9 311 1z m2402 -34 c11 -11 20 -23 20 -28 0 -18 -33 -52 -50 -52
-17 0 -50 34 -50 52 0 11 38 48 50 48 6 0 19 -9 30 -20z m-4980 -31 c12 -22 4
-46 -22 -60 -27 -15 -57 -2 -64 28 -13 51 62 79 86 32z m1538 -68 c49 -25 67
-59 92 -171 29 -136 28 -155 -19 -201 -25 -25 -48 -39 -65 -39 l-26 0 0 -120
0 -120 -24 0 c-13 0 -31 -3 -40 -6 -14 -5 -16 9 -16 120 l0 126 -31 0 c-23 0
-41 9 -65 35 -42 45 -50 87 -29 145 9 25 22 73 30 106 17 76 29 97 74 123 45
26 72 26 119 2z m1886 5 c42 -18 74 -58 81 -105 4 -20 15 -61 26 -92 10 -31
19 -73 19 -93 0 -69 -46 -126 -103 -126 l-28 0 2 -120 c1 -66 -1 -120 -5 -120
-3 0 -22 0 -41 0 l-35 0 0 120 0 120 -31 0 c-23 0 -41 9 -64 34 -41 44 -48 77
-30 146 8 30 19 81 25 112 13 65 40 104 84 124 40 17 59 17 100 0z m1864 -204
c33 -42 1 -102 -55 -102 -29 0 -36 5 -47 32 -8 18 -11 41 -6 53 15 42 79 52
108 17z m-5598 -12 c24 -24 25 -38 4 -68 -17 -25 -71 -31 -92 -10 -18 18 -15
75 6 87 27 16 60 13 82 -9z m5208 -16 c26 -18 28 -41 5 -66 -31 -35 -73 -16
-73 34 0 15 8 31 18 37 23 14 24 14 50 -5z m-4830 -16 c30 -30 3 -83 -39 -76
-32 5 -45 31 -31 62 13 28 49 35 70 14z m4710 -290 c7 -7 12 -21 12 -33 0 -12
-5 -26 -12 -33 -7 -7 -21 -12 -33 -12 -12 0 -26 5 -33 12 -7 7 -12 21 -12 33
0 12 5 26 12 33 7 7 21 12 33 12 12 0 26 -5 33 -12z m-4584 -14 c9 -8 16 -22
16 -29 0 -19 -28 -45 -47 -45 -20 0 -53 29 -53 46 0 19 29 44 50 44 10 0 26
-7 34 -16z m4983 -40 c15 -24 15 -29 2 -53 -30 -53 -109 -33 -109 28 0 36 17
51 57 51 24 0 37 -7 50 -26z m-5379 0 c28 -19 28 -55 1 -80 -19 -17 -23 -17
-47 -3 -36 20 -41 61 -10 83 28 20 28 20 56 0z m4800 -226 c7 -7 12 -21 12
-33 0 -12 -5 -26 -12 -33 -7 -7 -21 -12 -33 -12 -12 0 -26 5 -33 12 -7 7 -12
21 -12 33 0 12 5 26 12 33 7 7 21 12 33 12 12 0 26 -5 33 -12z m-3052 -8 l34
0 -2 -212 -3 -213 -95 -7 c-145 -10 -203 -37 -337 -155 l-71 -63 -1 167 c-2
245 16 319 96 394 59 57 117 82 208 90 44 3 93 5 109 3 16 -2 44 -4 62 -4z
m-1166 -20 c23 -44 -34 -88 -71 -54 -36 32 -18 74 33 74 17 0 31 -7 38 -20z
m3129 -6 c-52 -56 -269 -214 -293 -214 -4 0 -5 13 -1 30 5 23 1 35 -19 55
l-25 25 -530 0 -530 0 -21 -22 c-25 -27 -26 -59 -1 -89 l19 -24 519 -5 518 -5
-85 -42 c-102 -50 -231 -89 -342 -103 -46 -5 -289 -10 -550 -10 l-468 0 0 215
0 215 917 0 916 0 -24 -26z m-3445 -170 c19 -18 21 -65 4 -82 -28 -28 -98 3
-98 43 0 21 36 55 59 55 11 0 27 -7 35 -16z m4827 6 c26 -14 25 -62 -2 -86
-19 -17 -23 -17 -47 -3 -46 25 -39 99 10 99 11 0 28 -5 39 -10z m-4328 -94
c24 -18 22 -21 -25 -46 -96 -50 -168 -133 -168 -193 0 -13 13 -44 29 -69 25
-39 44 -53 121 -92 152 -76 383 -134 623 -156 66 -6 132 -17 148 -25 57 -30
71 -82 28 -106 -35 -19 -419 21 -594 61 -304 70 -485 204 -485 359 0 101 61
177 198 246 73 37 98 41 125 21z m3874 -18 c271 -133 269 -364 -4 -506 -156
-80 -337 -125 -643 -157 -181 -19 -186 -19 -210 5 -27 27 -25 37 13 75 29 29
41 33 107 39 233 22 502 86 646 156 196 94 206 210 30 327 -39 26 -73 49 -76
51 -7 5 43 42 59 42 7 0 43 -14 78 -32z m-3569 -180 l3 -108 -181 0 -180 0 0
26 c0 40 92 126 165 153 70 26 129 40 165 38 25 -2 25 -3 28 -109z m3414 16
c41 -26 78 -77 78 -106 0 -17 -15 -18 -180 -18 -99 0 -180 4 -180 9 0 19 92
110 132 130 51 26 92 22 150 -15z m-4101 -373 c17 -18 29 -40 29 -56 0 -36
-41 -75 -80 -75 -36 0 -80 38 -80 69 0 49 37 89 83 90 10 1 32 -12 48 -28z
m4614 12 c18 -17 35 -56 35 -78 0 -8 -10 -26 -23 -40 -51 -60 -157 -16 -143
59 12 62 92 99 131 59z m-3408 -627 c68 -35 80 -88 28 -122 -23 -15 -27 -15
-68 5 -24 12 -61 21 -83 21 -130 0 -189 -182 -89 -276 43 -40 90 -49 147 -28
74 27 84 28 107 3 34 -37 24 -68 -33 -104 -44 -27 -58 -30 -125 -30 -86 0
-134 20 -188 77 -98 103 -109 242 -28 365 71 107 220 147 332 89z m-1519 8
c44 -18 92 -61 92 -83 0 -19 -39 -61 -57 -61 -7 0 -30 9 -50 20 -108 58 -221
-15 -223 -141 0 -51 25 -98 72 -132 38 -28 103 -27 156 3 l42 24 30 -29 c37
-35 37 -45 5 -84 -58 -68 -203 -80 -293 -24 -61 37 -118 119 -132 189 -13 62
-3 130 30 193 24 47 102 118 144 130 50 15 144 12 184 -5z m266 0 c12 -11 16
-35 16 -87 0 -121 -4 -117 111 -117 l99 0 0 88 c0 102 14 132 60 132 58 0 60
-7 60 -277 0 -271 -3 -283 -61 -283 -45 0 -59 31 -59 132 l0 88 -100 0 c-82 0
-100 -3 -101 -15 -1 -8 -3 -19 -4 -25 -1 -5 -3 -44 -4 -85 -1 -70 -3 -76 -25
-86 -35 -17 -72 -4 -85 29 -9 20 -11 99 -9 261 3 217 4 234 22 247 26 18 61
18 80 -2z m782 10 c20 -5 44 -41 44 -64 0 -6 -9 -19 -20 -30 -17 -17 -33 -20
-125 -20 l-105 0 0 -56 0 -57 65 7 c84 8 110 1 125 -35 10 -24 10 -33 -4 -54
-15 -23 -22 -25 -101 -25 l-85 0 0 -50 0 -50 109 0 109 0 12 -29 c30 -74 -3
-91 -175 -91 -190 0 -175 -25 -175 286 l0 255 23 9 c24 10 269 13 303 4z m718
-10 c12 -12 16 -36 16 -100 0 -46 2 -84 4 -84 3 0 29 26 58 58 131 142 132
142 180 142 60 0 77 -19 53 -57 -10 -16 -56 -67 -103 -115 l-85 -87 27 -36
c15 -19 65 -76 112 -126 46 -49 84 -96 84 -103 0 -23 -24 -36 -66 -36 -41 0
-46 4 -147 110 -57 61 -107 110 -111 110 -3 0 -6 -37 -6 -82 0 -100 -13 -132
-56 -136 -62 -6 -64 2 -64 278 0 273 1 280 60 280 16 0 36 -7 44 -16z m558 -1
c16 -15 18 -36 18 -261 0 -270 -3 -282 -60 -282 -52 0 -55 13 -58 272 -3 206
-1 243 13 264 18 28 60 32 87 7z m240 -10 c14 -16 72 -91 129 -167 l104 -139
3 154 c2 130 5 156 19 167 25 18 60 15 83 -8 19 -19 20 -33 20 -252 0 -255 -5
-281 -52 -286 -15 -2 -34 0 -42 5 -8 4 -58 64 -111 133 -52 69 -107 139 -120
155 l-24 30 0 -147 c-1 -164 -7 -182 -65 -176 -52 5 -56 26 -56 286 0 219 1
233 20 252 28 28 62 25 92 -7z m911 2 c89 -42 126 -179 73 -269 -33 -56 -89
-85 -171 -87 -33 -1 -63 -7 -67 -13 -4 -6 -8 -41 -8 -78 0 -73 -11 -88 -63
-88 -48 0 -52 17 -55 254 -4 250 0 283 31 297 37 16 217 5 260 -16z m512 6
c58 -27 122 -96 145 -158 53 -141 -1 -283 -131 -352 -57 -29 -70 -33 -124 -28
-77 6 -131 34 -184 93 -70 80 -89 186 -50 289 27 73 71 122 134 151 63 30 152
32 210 5z m349 3 c14 -13 16 -51 16 -264 0 -273 -1 -280 -60 -280 -56 0 -60
18 -60 282 0 225 1 239 20 258 24 24 63 26 84 4z m234 -12 c15 -15 72 -90 127
-165 l100 -138 5 156 c5 167 8 175 59 175 14 0 33 -7 43 -17 17 -15 18 -37 18
-269 0 -240 -1 -254 -19 -264 -36 -19 -68 -11 -97 23 -16 18 -72 91 -124 162
l-95 129 -3 -144 c-3 -159 -10 -180 -63 -180 -55 0 -59 19 -59 287 0 239 0
242 22 257 33 23 56 20 86 -12z m855 9 c22 -18 22 -64 -1 -84 -11 -10 -40 -17
-82 -19 l-65 -3 0 -203 c0 -190 -1 -204 -19 -218 -38 -28 -93 -8 -98 34 -1 9
-2 100 -2 202 l-1 185 -72 5 c-40 3 -76 10 -81 15 -21 22 -22 52 -3 76 19 24
19 24 213 24 150 0 199 -3 211 -14z"/>
<path d="M5475 6058 c-97 -10 -427 -44 -624 -63 -79 -8 -145 -16 -148 -19 -10
-10 21 -43 322 -352 171 -174 385 -394 476 -488 92 -94 169 -169 172 -166 2 3
34 181 71 395 36 215 70 410 75 435 5 25 7 47 5 50 -3 2 -83 -74 -178 -169
-172 -172 -175 -174 -223 -178 -115 -11 -190 96 -135 194 9 17 95 104 190 193
94 89 172 166 172 171 0 11 -65 10 -175 -3z"/>
<path d="M4209 5378 c-18 -33 -4 -105 40 -206 49 -114 108 -198 198 -282 85
-81 242 -187 289 -196 63 -12 114 27 114 87 0 36 -20 59 -93 106 -154 98 -254
207 -322 350 -42 89 -65 117 -117 144 -51 26 -94 25 -109 -3z"/>
<path d="M3500 3625 l0 -85 90 0 90 0 0 85 0 85 -90 0 -90 0 0 -85z"/>
<path d="M4340 1205 l0 -78 50 5 c61 6 90 30 90 73 0 50 -20 67 -84 73 l-56 4
0 -77z"/>
<path d="M4848 1265 c-64 -35 -93 -134 -60 -207 26 -60 67 -88 127 -88 59 0
100 28 126 84 24 52 23 90 -1 143 -33 73 -123 105 -192 68z"/>
</g>
</svg>
